<svg width="900" height="650" viewBox="0 0 900 650" fill="none" xmlns="http://www.w3.org/2000/svg">
<rect width="900" height="650" rx="30" fill="#3DA4B6"/>
<circle cx="450" cy="325" r="278" fill="#E05B49"/>
<path d="M595.71 212.453H271V168.868C271 163.051 275.716 158.335 281.533 158.335H585.176C590.994 158.335 595.71 163.051 595.71 168.868V212.453Z" fill="#3A556A"/>
<path d="M585.176 472.221H281.533C275.716 472.221 271 467.505 271 461.687V212.453H595.71V461.687C595.71 467.505 590.994 472.221 585.176 472.221Z" fill="#E1E6E9"/>
<path d="M306.176 198.925C313.649 198.925 319.706 192.867 319.706 185.395C319.706 177.922 313.649 171.864 306.176 171.864C298.703 171.864 292.646 177.922 292.646 185.395C292.646 192.867 298.703 198.925 306.176 198.925Z" fill="#FCD462"/>
<path d="M349.473 198.925C356.946 198.925 363.004 192.867 363.004 185.395C363.004 177.922 356.946 171.864 349.473 171.864C342.001 171.864 335.943 177.922 335.943 185.395C335.943 192.867 342.001 198.925 349.473 198.925Z" fill="#27A2DB"/>
<path d="M392.765 198.925C400.238 198.925 406.296 192.867 406.296 185.395C406.296 177.922 400.238 171.864 392.765 171.864C385.293 171.864 379.235 177.922 379.235 185.395C379.235 192.867 385.293 198.925 392.765 198.925Z" fill="#44C4A1"/>
<path d="M642.02 446.61L666 440.709V410.5L642.02 404.599C639.529 393.28 635.054 382.726 629.004 373.261L641.809 352.097L620.447 330.735L599.282 343.541C589.817 337.491 579.264 333.018 567.946 330.527L562.044 306.545H531.835L525.933 330.527C514.613 333.018 504.06 337.493 494.594 343.543L473.428 330.738L452.067 352.1L464.873 373.265C458.823 382.731 454.348 393.283 451.858 404.601L427.877 410.502V440.711L451.858 446.612C454.349 457.931 458.823 468.484 464.873 477.95L452.069 499.114L473.431 520.475L494.594 507.671C504.06 513.721 514.614 518.197 525.934 520.687L531.835 544.664H562.044L567.945 520.687C579.266 518.196 589.82 513.721 599.286 507.67L620.448 520.472L641.809 499.111L629.005 477.95C635.055 468.484 639.53 457.929 642.02 446.61Z" fill="#27A2DB"/>
<path d="M546.942 501.368C588.786 501.368 622.708 467.446 622.708 425.602C622.708 383.757 588.786 349.835 546.942 349.835C505.097 349.835 471.175 383.757 471.175 425.602C471.175 467.446 505.097 501.368 546.942 501.368Z" fill="#E1E6E9"/>
<path d="M546.942 468.894C570.851 468.894 590.234 449.511 590.234 425.602C590.234 401.692 570.851 382.31 546.942 382.31C523.032 382.31 503.649 401.692 503.649 425.602C503.649 449.511 523.032 468.894 546.942 468.894Z" fill="#1C75A1"/>
<path d="M329.423 299.517L323.888 312.09H313.924L338.277 256.822H348.241L372.593 312.09H362.632L357.096 299.517H329.423ZM353.302 290.902L343.26 268.129L333.218 290.902H353.302Z" fill="#3A556A"/>
<path d="M417.585 261.643C421.433 264.86 423.357 269.814 423.357 276.507C423.357 283.205 421.391 288.109 417.466 291.216C413.538 294.325 407.514 295.882 399.398 295.882H389.595V312.091H380.264V256.823H399.24C407.621 256.823 413.737 258.432 417.585 261.643ZM410.983 284.454C412.852 282.479 413.788 279.583 413.788 275.761C413.788 271.939 412.601 269.236 410.23 267.653C407.859 266.07 404.142 265.286 399.081 265.286H389.593V287.421H400.426C405.59 287.42 409.11 286.435 410.983 284.454Z" fill="#3A556A"/>
<path d="M434.347 256.823H443.677V312.091H434.347V256.823Z" fill="#3A556A"/>
<path d="M564.11 195.927H439.375C433.557 195.927 428.841 191.211 428.841 185.394C428.841 179.576 433.557 174.86 439.375 174.86H564.109C569.927 174.86 574.643 179.576 574.643 185.394C574.643 191.211 569.927 195.927 564.11 195.927Z" fill="#E1E6E9"/>
</svg>
