<svg width="900" height="650" viewBox="0 0 900 650" fill="none" xmlns="http://www.w3.org/2000/svg">
<rect width="900" height="650" rx="30" fill="#DB8F48"/>
<circle cx="450" cy="325" r="278" fill="#1AE3B3"/>
<g clip-path="url(#clip0)">
<path d="M591.145 209.982C586.158 150.132 535.784 103.249 474.438 103.249C442.019 103.249 413.092 116.217 391.645 137.164C383.166 133.174 374.189 131.179 364.214 131.179C328.803 131.179 299.875 160.107 299.875 195.519C299.875 200.507 300.373 205.992 301.869 210.481C272.444 216.465 250 242.899 250 274.321C250 309.732 278.927 338.66 314.339 338.66H584.662C620.073 338.66 649.001 309.733 649.001 274.321C649 240.905 623.564 213.473 591.145 209.982Z" fill="#27A2DB"/>
<path d="M294.389 244.396L316.832 239.907L314.338 230.431L306.358 231.927C294.887 233.921 284.912 240.904 278.927 250.381C283.417 247.887 288.404 245.393 294.389 244.396Z" fill="#2D93BA"/>
<path d="M589.15 231.927L571.195 229.932L569.699 211.977C565.21 163.099 523.814 125.195 474.936 125.195C449.5 125.195 425.56 135.17 407.605 153.125L396.632 164.098L382.667 157.613C376.682 155.12 370.697 153.623 364.712 153.623C349.749 153.623 336.782 161.104 329.301 173.075C335.785 168.586 344.263 166.092 352.742 166.092C358.727 166.092 365.211 167.588 370.697 170.082L384.663 176.566L395.635 165.594C413.59 147.639 437.531 137.664 462.967 137.664C511.845 137.664 553.739 176.067 557.729 224.446L559.226 242.401L577.181 244.396C599.126 246.89 615.584 264.844 615.584 286.789C615.584 295.268 613.09 303.249 608.602 310.231C620.073 302.75 628.053 289.283 628.053 274.82C627.056 252.376 610.597 233.922 589.15 231.927Z" fill="#2D93BA"/>
<path d="M555.235 332.675H343.765V431.926H555.235V332.675Z" fill="#64798A"/>
<path d="M562.218 262.351H336.782C332.792 262.351 329.301 265.842 329.301 269.832V324.695C329.301 329.183 332.294 332.176 336.782 332.176H562.218C566.208 332.176 569.699 328.685 569.699 324.695V270.331C569.2 265.842 566.208 262.351 562.218 262.351Z" fill="#EBF0F3"/>
<path d="M562.218 431.926H336.782C332.792 431.926 329.301 435.417 329.301 439.407V494.27C329.301 498.758 332.294 501.751 336.782 501.751H562.218C566.208 501.751 569.699 498.26 569.699 494.27V439.906C569.2 435.417 566.208 431.926 562.218 431.926Z" fill="#EBF0F3"/>
<path d="M562.218 347.139H336.782C332.792 347.139 329.301 350.629 329.301 354.62V409.482C329.301 413.971 332.294 416.963 336.782 416.963H562.218C566.208 416.963 569.699 413.472 569.699 409.482V355.119C569.2 350.629 566.208 347.139 562.218 347.139Z" fill="#EBF0F3"/>
<path d="M357.73 311.727C365.443 311.727 371.695 305.475 371.695 297.762C371.695 290.049 365.443 283.797 357.73 283.797C350.017 283.797 343.765 290.049 343.765 297.762C343.765 305.475 350.017 311.727 357.73 311.727Z" fill="#3A556A"/>
<path d="M358.229 307.238C363.738 307.238 368.204 302.772 368.204 297.263C368.204 291.754 363.738 287.288 358.229 287.288C352.72 287.288 348.254 291.754 348.254 297.263C348.254 302.772 352.72 307.238 358.229 307.238Z" fill="#64798A"/>
<path d="M392.144 304.745C396.001 304.745 399.127 301.619 399.127 297.762C399.127 293.906 396.001 290.78 392.144 290.78C388.288 290.78 385.162 293.906 385.162 297.762C385.162 301.619 388.288 304.745 392.144 304.745Z" fill="#E56353"/>
<path d="M420.573 304.745C424.429 304.745 427.555 301.619 427.555 297.762C427.555 293.906 424.429 290.78 420.573 290.78C416.717 290.78 413.59 293.906 413.59 297.762C413.59 301.619 416.717 304.745 420.573 304.745Z" fill="#44C4A1"/>
<path d="M357.73 396.515C365.443 396.515 371.695 390.262 371.695 382.55C371.695 374.837 365.443 368.585 357.73 368.585C350.017 368.585 343.765 374.837 343.765 382.55C343.765 390.262 350.017 396.515 357.73 396.515Z" fill="#3A556A"/>
<path d="M358.229 392.025C363.738 392.025 368.204 387.559 368.204 382.05C368.204 376.541 363.738 372.075 358.229 372.075C352.72 372.075 348.254 376.541 348.254 382.05C348.254 387.559 352.72 392.025 358.229 392.025Z" fill="#64798A"/>
<path d="M392.144 389.532C396.001 389.532 399.127 386.406 399.127 382.55C399.127 378.693 396.001 375.567 392.144 375.567C388.288 375.567 385.162 378.693 385.162 382.55C385.162 386.406 388.288 389.532 392.144 389.532Z" fill="#E56353"/>
<path d="M420.573 389.532C424.429 389.532 427.555 386.406 427.555 382.55C427.555 378.693 424.429 375.567 420.573 375.567C416.717 375.567 413.59 378.693 413.59 382.55C413.59 386.406 416.717 389.532 420.573 389.532Z" fill="#44C4A1"/>
<path d="M357.73 481.302C365.443 481.302 371.695 475.05 371.695 467.337C371.695 459.625 365.443 453.372 357.73 453.372C350.017 453.372 343.765 459.625 343.765 467.337C343.765 475.05 350.017 481.302 357.73 481.302Z" fill="#3A556A"/>
<path d="M358.229 476.813C363.738 476.813 368.204 472.347 368.204 466.838C368.204 461.329 363.738 456.863 358.229 456.863C352.72 456.863 348.254 461.329 348.254 466.838C348.254 472.347 352.72 476.813 358.229 476.813Z" fill="#64798A"/>
<path d="M392.144 474.32C396.001 474.32 399.127 471.194 399.127 467.337C399.127 463.481 396.001 460.355 392.144 460.355C388.288 460.355 385.162 463.481 385.162 467.337C385.162 471.194 388.288 474.32 392.144 474.32Z" fill="#E56353"/>
<path d="M420.573 474.32C424.429 474.32 427.555 471.194 427.555 467.337C427.555 463.481 424.429 460.355 420.573 460.355C416.717 460.355 413.59 463.481 413.59 467.337C413.59 471.194 416.717 474.32 420.573 474.32Z" fill="#44C4A1"/>
<path d="M462.966 273.822H450.996V285.792H462.966V273.822Z" fill="#D5D6DB"/>
<path d="M486.906 273.822H474.936V285.792H486.906V273.822Z" fill="#D5D6DB"/>
<path d="M510.846 273.822H498.876V285.792H510.846V273.822Z" fill="#D5D6DB"/>
<path d="M534.287 273.822H522.318V285.792H534.287V273.822Z" fill="#D5D6DB"/>
<path d="M558.227 273.822H546.258V285.792H558.227V273.822Z" fill="#D5D6DB"/>
<path d="M474.936 285.792H462.967V297.761H474.936V285.792Z" fill="#D5D6DB"/>
<path d="M498.876 285.792H486.907V297.761H498.876V285.792Z" fill="#D5D6DB"/>
<path d="M522.816 285.792H510.847V297.761H522.816V285.792Z" fill="#D5D6DB"/>
<path d="M546.257 285.792H534.287V297.761H546.257V285.792Z" fill="#D5D6DB"/>
<path d="M462.966 297.762H450.996V309.732H462.966V297.762Z" fill="#D5D6DB"/>
<path d="M486.906 297.762H474.936V309.732H486.906V297.762Z" fill="#D5D6DB"/>
<path d="M510.846 297.762H498.876V309.732H510.846V297.762Z" fill="#D5D6DB"/>
<path d="M534.287 297.762H522.318V309.732H534.287V297.762Z" fill="#D5D6DB"/>
<path d="M558.227 297.762H546.258V309.732H558.227V297.762Z" fill="#D5D6DB"/>
<path d="M474.936 309.732H462.967V321.701H474.936V309.732Z" fill="#D5D6DB"/>
<path d="M498.876 309.732H486.907V321.701H498.876V309.732Z" fill="#D5D6DB"/>
<path d="M522.816 309.732H510.847V321.701H522.816V309.732Z" fill="#D5D6DB"/>
<path d="M546.257 309.732H534.287V321.701H546.257V309.732Z" fill="#D5D6DB"/>
<path d="M462.966 358.61H450.996V370.579H462.966V358.61Z" fill="#D5D6DB"/>
<path d="M486.906 358.61H474.936V370.579H486.906V358.61Z" fill="#D5D6DB"/>
<path d="M510.846 358.61H498.876V370.579H510.846V358.61Z" fill="#D5D6DB"/>
<path d="M534.287 358.61H522.318V370.579H534.287V358.61Z" fill="#D5D6DB"/>
<path d="M558.227 358.61H546.258V370.579H558.227V358.61Z" fill="#D5D6DB"/>
<path d="M474.936 370.579H462.967V382.549H474.936V370.579Z" fill="#D5D6DB"/>
<path d="M498.876 370.579H486.907V382.549H498.876V370.579Z" fill="#D5D6DB"/>
<path d="M522.816 370.579H510.847V382.549H522.816V370.579Z" fill="#D5D6DB"/>
<path d="M546.257 370.579H534.287V382.549H546.257V370.579Z" fill="#D5D6DB"/>
<path d="M462.966 382.55H450.996V394.519H462.966V382.55Z" fill="#D5D6DB"/>
<path d="M486.906 382.55H474.936V394.519H486.906V382.55Z" fill="#D5D6DB"/>
<path d="M510.846 382.55H498.876V394.519H510.846V382.55Z" fill="#D5D6DB"/>
<path d="M534.287 382.55H522.318V394.519H534.287V382.55Z" fill="#D5D6DB"/>
<path d="M558.227 382.55H546.258V394.519H558.227V382.55Z" fill="#D5D6DB"/>
<path d="M474.936 394.519H462.967V406.489H474.936V394.519Z" fill="#D5D6DB"/>
<path d="M498.876 394.519H486.907V406.489H498.876V394.519Z" fill="#D5D6DB"/>
<path d="M522.816 394.519H510.847V406.489H522.816V394.519Z" fill="#D5D6DB"/>
<path d="M546.257 394.519H534.287V406.489H546.257V394.519Z" fill="#D5D6DB"/>
<path d="M462.966 443.397H450.996V455.367H462.966V443.397Z" fill="#D5D6DB"/>
<path d="M486.906 443.397H474.936V455.367H486.906V443.397Z" fill="#D5D6DB"/>
<path d="M510.846 443.397H498.876V455.367H510.846V443.397Z" fill="#D5D6DB"/>
<path d="M534.287 443.397H522.318V455.367H534.287V443.397Z" fill="#D5D6DB"/>
<path d="M558.227 443.397H546.258V455.367H558.227V443.397Z" fill="#D5D6DB"/>
<path d="M474.936 455.367H462.967V467.336H474.936V455.367Z" fill="#D5D6DB"/>
<path d="M498.876 455.367H486.907V467.336H498.876V455.367Z" fill="#D5D6DB"/>
<path d="M522.816 455.367H510.847V467.336H522.816V455.367Z" fill="#D5D6DB"/>
<path d="M546.257 455.367H534.287V467.336H546.257V455.367Z" fill="#D5D6DB"/>
<path d="M462.966 467.337H450.996V479.307H462.966V467.337Z" fill="#D5D6DB"/>
<path d="M486.906 467.337H474.936V479.307H486.906V467.337Z" fill="#D5D6DB"/>
<path d="M510.846 467.337H498.876V479.307H510.846V467.337Z" fill="#D5D6DB"/>
<path d="M534.287 467.337H522.318V479.307H534.287V467.337Z" fill="#D5D6DB"/>
<path d="M558.227 467.337H546.258V479.307H558.227V467.337Z" fill="#D5D6DB"/>
<path d="M474.936 478.808H462.967V490.778H474.936V478.808Z" fill="#D5D6DB"/>
<path d="M498.876 478.808H486.907V490.778H498.876V478.808Z" fill="#D5D6DB"/>
<path d="M522.816 478.808H510.847V490.778H522.816V478.808Z" fill="#D5D6DB"/>
<path d="M546.257 478.808H534.287V490.778H546.257V478.808Z" fill="#D5D6DB"/>
</g>
<defs>
<clipPath id="clip0">
<rect x="250" y="103" width="399" height="399" fill="white"/>
</clipPath>
</defs>
</svg>
