<svg width="900" height="650" viewBox="0 0 900 650" fill="none" xmlns="http://www.w3.org/2000/svg">
<rect width="900" height="650" rx="30" fill="#57B573"/>
<circle cx="447" cy="330" r="278" fill="#E3EB5C"/>
<g clip-path="url(#clip0)">
<path d="M408.735 313.256L408.608 303.404C408.56 299.694 411.542 296.633 415.257 296.582L463.763 295.956L463.594 282.85C463.573 281.219 464.536 279.729 466.037 279.084C467.538 278.44 469.287 278.768 470.456 279.907L495.54 304.351C497.137 305.908 497.17 308.468 495.613 310.066L471.169 335.149C470.03 336.319 468.293 336.688 466.777 336.082C465.26 335.477 464.254 334.023 464.237 332.381L464.064 319.279L415.558 319.905C411.858 319.949 408.787 316.986 408.735 313.256Z" fill="#2196F3"/>
<path d="M432.977 384.589L407.894 360.145C406.297 358.588 406.264 356.028 407.82 354.43L432.264 329.347C433.404 328.178 435.14 327.808 436.657 328.414C438.174 329.019 439.18 330.481 439.197 332.115L439.37 345.217L487.876 344.591C491.587 344.543 494.647 347.525 494.699 351.24L494.826 361.092C494.874 364.803 491.892 367.863 488.177 367.915L439.671 368.541L439.84 381.646C439.861 383.277 438.897 384.768 437.397 385.412C435.896 386.056 434.147 385.728 432.977 384.589Z" fill="#2196F3"/>
<path d="M495.701 304.509L470.618 280.065C469.449 278.926 467.703 278.602 466.203 279.246C464.702 279.89 463.735 281.377 463.759 283.012L463.929 296.117L415.419 296.74C411.708 296.788 408.726 299.848 408.77 303.562L408.833 308.484L496.923 307.355C496.91 306.319 496.5 305.288 495.701 304.509V304.509Z" fill="#1D83D4"/>
<path d="M494.595 356.008L406.508 357.141C406.522 358.177 406.931 359.208 407.73 359.987L432.813 384.431C433.983 385.57 435.728 385.894 437.229 385.25C438.729 384.606 439.697 383.119 439.672 381.484L439.503 368.379L488.009 367.753C491.72 367.705 494.702 364.645 494.658 360.93L494.595 356.008Z" fill="#1D83D4"/>
</g>
<path d="M321.5 257.742C361.859 257.742 394.576 247.279 394.576 234.371C394.576 221.464 361.859 211 321.5 211C281.141 211 248.424 221.464 248.424 234.371C248.424 247.279 281.141 257.742 321.5 257.742Z" fill="#285680"/>
<path d="M260.116 283.751C261.022 284.185 261.987 284.652 262.951 285.086C261.957 284.652 261.022 284.218 260.116 283.784C259.686 283.589 259.266 283.366 258.859 283.116C259.268 283.317 259.677 283.55 260.116 283.751Z" fill="#90BAE1"/>
<path d="M384.141 283.116C383.734 283.366 383.314 283.589 382.884 283.784C382.007 284.218 381.072 284.652 380.078 285.086C381.043 284.619 381.978 284.185 382.884 283.751C383.323 283.55 383.732 283.317 384.141 283.116Z" fill="#90BAE1"/>
<path d="M396.36 290.03C396.36 303.266 362.853 313.971 321.501 313.971C280.149 313.971 246.642 303.266 246.642 290.03C246.642 286.336 249.217 282.882 253.829 279.769C265.836 271.664 291.617 266.089 321.501 266.089C351.384 266.089 377.166 271.664 389.173 279.769C393.785 282.882 396.36 286.336 396.36 290.03Z" fill="#285680"/>
<path d="M396.36 347.176C396.36 360.397 362.861 371.115 321.5 371.115C280.138 371.115 246.64 360.397 246.64 347.176C246.634 346.589 246.703 346.004 246.845 345.44C248.104 341.656 250.613 338.588 253.831 336.892C265.844 328.779 291.626 323.204 321.5 323.204C351.373 323.204 377.154 328.779 389.168 336.892C392.387 338.588 394.895 341.656 396.154 345.44C396.297 346.004 396.365 346.589 396.36 347.176Z" fill="#285680"/>
<path d="M396.36 401.824C396.36 415.045 362.861 425.763 321.5 425.763C280.138 425.763 246.64 415.045 246.64 401.824C246.634 401.237 246.703 400.652 246.845 400.088C248.104 396.304 250.613 393.236 253.831 391.54C265.844 383.427 291.626 377.852 321.5 377.852C351.373 377.852 377.154 383.427 389.168 391.54C392.387 393.236 394.895 396.304 396.154 400.088C396.297 400.652 396.365 401.237 396.36 401.824Z" fill="#285680"/>
<path d="M394.577 234.371V271.097C394.577 274.703 392.063 278.075 387.561 281.113C386.458 281.861 385.317 282.53 384.141 283.117C383.732 283.317 383.323 283.551 382.884 283.751C381.978 284.185 381.043 284.619 380.078 285.086C376.519 286.561 372.889 287.798 369.204 288.793C368.21 289.06 367.217 289.327 366.194 289.594H366.135C364.82 289.928 363.475 290.228 362.072 290.529C361.078 290.762 360.055 290.963 359.003 291.163C357.191 291.497 355.32 291.831 353.42 292.132C342.838 293.725 332.174 294.506 321.5 294.469C310.826 294.506 300.163 293.726 289.58 292.132C287.68 291.831 285.81 291.497 283.997 291.163C282.945 290.963 281.922 290.763 280.928 290.529H280.869C279.496 290.228 278.18 289.928 276.865 289.594C275.813 289.36 274.79 289.093 273.796 288.793C270.118 287.81 266.497 286.572 262.951 285.086C261.986 284.652 261.022 284.185 260.116 283.751C259.677 283.551 259.268 283.317 258.859 283.117C257.683 282.53 256.541 281.861 255.439 281.113C250.937 278.075 248.423 274.67 248.423 271.097V234.371C248.423 247.292 281.132 257.742 321.5 257.742C361.867 257.742 394.577 247.292 394.577 234.371Z" fill="#90BAE1"/>
<path d="M396.359 290.03V327.652C396.359 331.345 393.784 334.8 389.172 337.912C388.043 338.678 386.873 339.363 385.669 339.964C385.25 340.169 384.831 340.409 384.382 340.614C383.453 341.059 382.495 341.503 381.507 341.982C377.861 343.493 374.142 344.76 370.368 345.778C369.35 346.052 368.332 346.325 367.284 346.599H367.224C365.876 346.941 364.499 347.249 363.062 347.557C362.044 347.796 360.996 348.001 359.918 348.206C358.061 348.548 356.145 348.891 354.199 349.198C343.358 350.831 332.434 351.631 321.5 351.592C310.566 351.631 299.642 350.831 288.802 349.198C286.855 348.891 284.939 348.548 283.083 348.206C282.005 348.001 280.957 347.796 279.939 347.557H279.879C278.471 347.249 277.124 346.941 275.776 346.599C274.698 346.36 273.65 346.086 272.632 345.778C268.865 344.772 265.155 343.504 261.523 341.982C260.535 341.537 259.547 341.059 258.618 340.614C258.169 340.409 257.75 340.169 257.331 339.964C256.127 339.364 254.957 338.678 253.828 337.912C249.216 334.8 246.641 331.311 246.641 327.652V290.03C246.641 303.266 280.148 313.971 321.5 313.971C362.852 313.971 396.359 303.266 396.359 290.03Z" fill="#90BAE1"/>
<path d="M396.36 348.188V382.376C396.36 386.082 393.787 389.521 389.169 392.626C388.037 393.396 386.866 394.088 385.661 394.696C385.252 394.896 384.843 395.13 384.375 395.33C383.44 395.764 382.504 396.232 381.511 396.699C377.864 398.208 374.146 399.478 370.374 400.505C369.351 400.772 368.327 401.039 367.275 401.307H367.217C365.872 401.674 364.498 401.975 363.066 402.275C362.043 402.509 360.99 402.709 359.909 402.943C358.067 403.277 356.138 403.611 354.209 403.911C343.365 405.547 332.438 406.349 321.5 406.315C310.562 406.349 299.635 405.547 288.791 403.911C286.862 403.611 284.933 403.277 283.091 402.943C282.01 402.709 280.957 402.509 279.934 402.275H279.876C278.473 401.975 277.128 401.674 275.784 401.307C274.702 401.073 273.65 400.806 272.627 400.505C268.861 399.489 265.152 398.218 261.519 396.699C260.525 396.265 259.561 395.764 258.625 395.33C258.158 395.13 257.749 394.896 257.339 394.696C256.134 394.088 254.963 393.396 253.832 392.626C249.213 389.521 246.641 386.049 246.641 382.376V348.188C246.635 347.601 246.704 347.016 246.845 346.452C249.564 358.905 281.922 368.687 321.5 368.687C361.078 368.687 393.437 358.905 396.155 346.452C396.297 347.016 396.365 347.601 396.36 348.188Z" fill="#90BAE1"/>
<path d="M396.351 405.016V439.205C396.351 442.911 393.779 446.35 389.161 449.454C388.029 450.225 386.858 450.916 385.653 451.524C385.244 451.725 384.834 451.958 384.367 452.159C383.431 452.593 382.496 453.06 381.502 453.528C377.856 455.036 374.138 456.306 370.365 457.334C369.342 457.601 368.319 457.868 367.267 458.135H367.208C365.864 458.503 364.49 458.803 363.057 459.104C362.034 459.337 360.982 459.537 359.901 459.771C358.059 460.105 356.13 460.439 354.201 460.74C343.357 462.375 332.43 463.178 321.492 463.144C310.554 463.178 299.626 462.375 288.783 460.74C286.854 460.439 284.924 460.105 283.083 459.771C282.001 459.537 280.949 459.337 279.926 459.104H279.867C278.465 458.803 277.12 458.503 275.775 458.135C274.694 457.902 273.641 457.634 272.618 457.334C268.853 456.318 265.144 455.047 261.511 453.528C260.517 453.094 259.553 452.593 258.617 452.159C258.15 451.958 257.74 451.725 257.331 451.524C256.126 450.916 254.955 450.225 253.823 449.454C249.205 446.35 246.632 442.877 246.632 439.205V405.016C246.626 404.429 246.695 403.844 246.837 403.28C249.556 415.734 281.914 425.516 321.492 425.516C361.07 425.516 393.428 415.734 396.147 403.28C396.288 403.844 396.357 404.429 396.351 405.016Z" fill="#90BAE1"/>
<path d="M581.5 257.742C621.859 257.742 654.576 247.279 654.576 234.371C654.576 221.464 621.859 211 581.5 211C541.141 211 508.424 221.464 508.424 234.371C508.424 247.279 541.141 257.742 581.5 257.742Z" fill="#285680"/>
<path d="M520.116 283.751C521.022 284.185 521.987 284.652 522.951 285.086C521.957 284.652 521.022 284.218 520.116 283.784C519.686 283.589 519.266 283.366 518.859 283.116C519.268 283.317 519.677 283.55 520.116 283.751Z" fill="#90BAE1"/>
<path d="M644.141 283.116C643.734 283.366 643.314 283.589 642.884 283.784C642.007 284.218 641.072 284.652 640.078 285.086C641.043 284.619 641.978 284.185 642.884 283.751C643.323 283.55 643.732 283.317 644.141 283.116Z" fill="#90BAE1"/>
<path d="M656.36 290.03C656.36 303.266 622.853 313.971 581.501 313.971C540.149 313.971 506.642 303.266 506.642 290.03C506.642 286.336 509.217 282.882 513.829 279.769C525.836 271.664 551.617 266.089 581.501 266.089C611.384 266.089 637.166 271.664 649.173 279.769C653.785 282.882 656.36 286.336 656.36 290.03Z" fill="#285680"/>
<path d="M656.36 347.176C656.36 360.397 622.861 371.115 581.5 371.115C540.138 371.115 506.64 360.397 506.64 347.176C506.634 346.589 506.703 346.004 506.845 345.44C508.104 341.656 510.613 338.588 513.831 336.892C525.844 328.779 551.626 323.204 581.5 323.204C611.373 323.204 637.154 328.779 649.168 336.892C652.387 338.588 654.895 341.656 656.154 345.44C656.297 346.004 656.365 346.589 656.36 347.176Z" fill="#285680"/>
<path d="M656.36 401.824C656.36 415.045 622.861 425.763 581.5 425.763C540.138 425.763 506.64 415.045 506.64 401.824C506.634 401.237 506.703 400.652 506.845 400.088C508.104 396.304 510.613 393.236 513.831 391.54C525.844 383.427 551.626 377.852 581.5 377.852C611.373 377.852 637.154 383.427 649.168 391.54C652.387 393.236 654.895 396.304 656.154 400.088C656.297 400.652 656.365 401.237 656.36 401.824Z" fill="#285680"/>
<path d="M654.577 234.371V271.097C654.577 274.703 652.063 278.075 647.561 281.113C646.458 281.861 645.317 282.53 644.141 283.117C643.732 283.317 643.323 283.551 642.884 283.751C641.978 284.185 641.043 284.619 640.078 285.086C636.519 286.561 632.889 287.798 629.204 288.793C628.21 289.06 627.217 289.327 626.194 289.594H626.135C624.82 289.928 623.475 290.228 622.072 290.529C621.078 290.762 620.055 290.963 619.003 291.163C617.191 291.497 615.32 291.831 613.42 292.132C602.838 293.725 592.174 294.506 581.5 294.469C570.826 294.506 560.163 293.726 549.58 292.132C547.68 291.831 545.81 291.497 543.997 291.163C542.945 290.963 541.922 290.763 540.928 290.529H540.869C539.496 290.228 538.18 289.928 536.865 289.594C535.813 289.36 534.79 289.093 533.796 288.793C530.118 287.81 526.497 286.572 522.951 285.086C521.986 284.652 521.022 284.185 520.116 283.751C519.677 283.551 519.268 283.317 518.859 283.117C517.683 282.53 516.541 281.861 515.439 281.113C510.937 278.075 508.423 274.67 508.423 271.097V234.371C508.423 247.292 541.132 257.742 581.5 257.742C621.867 257.742 654.577 247.292 654.577 234.371Z" fill="#90BAE1"/>
<path d="M656.359 290.03V327.652C656.359 331.345 653.784 334.8 649.172 337.912C648.043 338.678 646.873 339.363 645.669 339.964C645.25 340.169 644.831 340.409 644.382 340.614C643.453 341.059 642.495 341.503 641.507 341.982C637.861 343.493 634.142 344.76 630.368 345.778C629.35 346.052 628.332 346.325 627.284 346.599H627.224C625.876 346.941 624.499 347.249 623.062 347.557C622.044 347.796 620.996 348.001 619.918 348.206C618.061 348.548 616.145 348.891 614.199 349.198C603.358 350.831 592.434 351.631 581.5 351.592C570.566 351.631 559.642 350.831 548.802 349.198C546.855 348.891 544.939 348.548 543.083 348.206C542.005 348.001 540.957 347.796 539.939 347.557H539.879C538.471 347.249 537.124 346.941 535.776 346.599C534.698 346.36 533.65 346.086 532.632 345.778C528.865 344.772 525.155 343.504 521.523 341.982C520.535 341.537 519.547 341.059 518.618 340.614C518.169 340.409 517.75 340.169 517.331 339.964C516.127 339.364 514.957 338.678 513.828 337.912C509.216 334.8 506.641 331.311 506.641 327.652V290.03C506.641 303.266 540.148 313.971 581.5 313.971C622.852 313.971 656.359 303.266 656.359 290.03Z" fill="#90BAE1"/>
<path d="M656.36 348.188V382.376C656.36 386.082 653.787 389.521 649.169 392.626C648.037 393.396 646.866 394.088 645.661 394.696C645.252 394.896 644.843 395.13 644.375 395.33C643.44 395.764 642.504 396.232 641.511 396.699C637.864 398.208 634.146 399.478 630.374 400.505C629.351 400.772 628.327 401.039 627.275 401.307H627.217C625.872 401.674 624.498 401.975 623.066 402.275C622.043 402.509 620.99 402.709 619.909 402.943C618.067 403.277 616.138 403.611 614.209 403.911C603.365 405.547 592.438 406.349 581.5 406.315C570.562 406.349 559.635 405.547 548.791 403.911C546.862 403.611 544.933 403.277 543.091 402.943C542.01 402.709 540.957 402.509 539.934 402.275H539.876C538.473 401.975 537.128 401.674 535.784 401.307C534.702 401.073 533.65 400.806 532.627 400.505C528.861 399.489 525.152 398.218 521.519 396.699C520.525 396.265 519.561 395.764 518.625 395.33C518.158 395.13 517.749 394.896 517.339 394.696C516.134 394.088 514.963 393.396 513.832 392.626C509.213 389.521 506.641 386.049 506.641 382.376V348.188C506.635 347.601 506.704 347.016 506.845 346.452C509.564 358.905 541.922 368.687 581.5 368.687C621.078 368.687 653.437 358.905 656.155 346.452C656.297 347.016 656.365 347.601 656.36 348.188Z" fill="#90BAE1"/>
<path d="M656.351 405.016V439.205C656.351 442.911 653.779 446.35 649.161 449.454C648.029 450.225 646.858 450.916 645.653 451.524C645.244 451.725 644.834 451.958 644.367 452.159C643.431 452.593 642.496 453.06 641.502 453.528C637.856 455.036 634.138 456.306 630.365 457.334C629.342 457.601 628.319 457.868 627.267 458.135H627.208C625.864 458.503 624.49 458.803 623.057 459.104C622.034 459.337 620.982 459.537 619.901 459.771C618.059 460.105 616.13 460.439 614.201 460.74C603.357 462.375 592.43 463.178 581.492 463.144C570.554 463.178 559.626 462.375 548.783 460.74C546.854 460.439 544.924 460.105 543.083 459.771C542.001 459.537 540.949 459.337 539.926 459.104H539.867C538.465 458.803 537.12 458.503 535.775 458.135C534.694 457.902 533.641 457.634 532.618 457.334C528.853 456.318 525.144 455.047 521.511 453.528C520.517 453.094 519.553 452.593 518.617 452.159C518.15 451.958 517.74 451.725 517.331 451.524C516.126 450.916 514.955 450.225 513.823 449.454C509.205 446.35 506.632 442.877 506.632 439.205V405.016C506.626 404.429 506.695 403.844 506.837 403.28C509.556 415.734 541.914 425.516 581.492 425.516C621.07 425.516 653.428 415.734 656.147 403.28C656.288 403.844 656.357 404.429 656.351 405.016Z" fill="#90BAE1"/>
<defs>
<clipPath id="clip0">
<rect x="451.871" y="250" width="118.867" height="114.441" transform="rotate(44.2606 451.871 250)" fill="white"/>
</clipPath>
</defs>
</svg>
