<svg width="900" height="650" viewBox="0 0 900 650" fill="none" xmlns="http://www.w3.org/2000/svg">
<rect width="900" height="650" rx="30" fill="#3DB699"/>
<circle cx="450" cy="325" r="278" fill="#1C85C0"/>
<g clip-path="url(#clip0)">
<path d="M629.435 212.385H271V164.685C271 158.318 276.206 153.157 282.628 153.157H617.807C624.229 153.157 629.435 158.318 629.435 164.685V212.385Z" fill="#3A556A"/>
<path d="M617.807 496.678H282.628C276.206 496.678 271 491.517 271 485.15V212.385H629.435V485.15C629.435 491.517 624.229 496.678 617.807 496.678Z" fill="#E1E6E9"/>
<path d="M309.83 197.58C318.078 197.58 324.765 190.95 324.765 182.772C324.765 174.594 318.078 167.964 309.83 167.964C301.581 167.964 294.894 174.594 294.894 182.772C294.894 190.95 301.581 197.58 309.83 197.58Z" fill="#FCD462"/>
<path d="M357.624 197.58C365.872 197.58 372.559 190.95 372.559 182.772C372.559 174.594 365.872 167.964 357.624 167.964C349.375 167.964 342.688 174.594 342.688 182.772C342.688 190.95 349.375 197.58 357.624 197.58Z" fill="#27A2DB"/>
<path d="M405.412 197.58C413.661 197.58 420.348 190.95 420.348 182.772C420.348 174.594 413.661 167.964 405.412 167.964C397.163 167.964 390.476 174.594 390.476 182.772C390.476 190.95 397.163 197.58 405.412 197.58Z" fill="#44C4A1"/>
<path d="M594.553 194.299H456.863C450.441 194.299 445.235 189.138 445.235 182.771C445.235 176.404 450.441 171.243 456.863 171.243H594.552C600.974 171.243 606.18 176.404 606.18 182.771C606.18 189.138 600.974 194.299 594.553 194.299Z" fill="#E1E6E9"/>
<rect x="295" y="235" width="212" height="61" fill="#C4C4C4"/>
<rect x="295" y="391" width="95" height="61" fill="#C4C4C4"/>
<rect x="407" y="391" width="93" height="61" fill="#C4C4C4"/>
<rect x="516" y="391" width="93" height="61" fill="#C4C4C4"/>
<rect width="212" height="25" transform="matrix(1 0 0 -1 295 333)" fill="#C4C4C4"/>
<rect width="212" height="25" transform="matrix(1 0 0 -1 295 370)" fill="#C4C4C4"/>
<rect x="572.364" y="377.084" width="67.9212" height="36.9825" transform="rotate(-90.253 572.364 377.084)" fill="#C4C4C4"/>
<path d="M526.3 377.084L526 309.163L562.982 309L563.282 376.921L526.3 377.084Z" fill="#C4C4C4"/>
<circle cx="563.5" cy="265.5" r="30.5" fill="#C4C4C4"/>
</g>
<defs>
<clipPath id="clip0">
<rect x="271" y="153" width="358" height="344" fill="white"/>
</clipPath>
</defs>
</svg>
